<svg xmlns="http://www.w3.org/2000/svg" viewBox="0 0 2333 465"><path fill="#1a1b1a" fill-rule="evenodd" d="M11 464h37V189H11v275Z"></path><path fill="#0972b9" d="m1499 464 88-378 142 235 163-264-34-20 103-37 15 107-34-20-215 359-118-193-51 211h-59Z"></path><path fill="#1a1b1a" fill-rule="evenodd" d="m1957 464-52-222-44 74 36 148h60Zm190-318c61 0 111 43 124 100h-248c13-57 63-100 124-100Zm184 160 2-30c0-104-83-188-186-188s-186 84-186 188 83 188 186 188c68 0 128-37 160-92l-50-30a127 127 0 0 1-234-36h308ZM157 464V321c0-16 0-25 3-38 9-34 42-57 79-57s70 26 78 61c3 10 3 22 3 34v143h37V321c0-14-1-27-3-38-9-53-59-94-115-94s-107 39-116 93c-3 15-3 24-3 39v143h37ZM421 87h37v145a136 136 0 0 1 235 94c0 76-61 138-136 138s-136-58-136-138V87Zm136 139c55 0 99 45 99 100s-44 100-99 100-99-45-99-100 45-100 99-100Zm327 201c-48 0-89-35-97-82h232a136 136 0 1 0-271-19c0 74 59 138 136 138 50 0 94-27 118-68l-32-19a99 99 0 0 1-86 50Zm-97-119c8-47 49-83 97-83s88 37 98 82l-195 1Zm524-221h37v293c-1 48 37 55 77 39l11 35c-77 28-126-7-125-73V87Z"></path><path fill="#1a1b1a" fill-rule="evenodd" d="M1334 220h75v37h-75v-37ZM30 87a30 30 0 1 1 0 60 30 30 0 0 1 0-60Z"></path><path fill="#1a1b1a" d="M1220 249a96 96 0 0 0-63-23c-43 0-49 44-10 67l54 32c102 59 10 205-124 106l23-30c89 65 139-10 82-44l-54-32c-31-18-53-49-43-85s40-51 73-52c32 0 59 12 85 31l-23 30Z"></path></svg>