<?xml version="1.0" encoding="utf-8"?>
<!-- Generator: Adobe Illustrator 19.0.0, SVG Export Plug-In . SVG Version: 6.00 Build 0)  -->
<svg version="1.1" id="Capa_1" xmlns="http://www.w3.org/2000/svg" xmlns:xlink="http://www.w3.org/1999/xlink" x="0px" y="0px"
	 viewBox="0 0 192 48" style="enable-background:new 0 0 192 48;" xml:space="preserve">
<style type="text/css">
	.st0{opacity:0.7;}
	.st1{fill:#FFFFFF;}
	.st2{fill:none;}
	.st3{fill:#2DDDF5;}
</style>
<g class="st0">
	<g>
		<path class="st1" d="M1,46l0.7-0.8c0.6,0.5,1.2,0.8,2,0.8c0.7,0,1.1-0.3,1.1-0.8v0c0-0.5-0.3-0.7-1.4-1c-1.3-0.3-2.1-0.7-2.1-1.9
			v0c0-1.1,0.9-1.8,2.2-1.8c0.9,0,1.7,0.3,2.3,0.8l-0.6,0.8c-0.6-0.4-1.1-0.7-1.7-0.7c-0.7,0-1,0.3-1,0.8v0c0,0.5,0.3,0.7,1.5,1
			c1.3,0.3,2,0.8,2,1.9v0C5.9,46.3,5,47,3.6,47C2.7,47,1.8,46.6,1,46z"/>
		<path class="st1" d="M11.3,43.7L11.3,43.7c0-1.8,1.4-3.3,3.3-3.3s3.3,1.5,3.3,3.3v0c0,1.8-1.4,3.3-3.3,3.3S11.3,45.5,11.3,43.7z
			 M16.7,43.7L16.7,43.7c0-1.2-0.9-2.3-2.2-2.3s-2.1,1-2.1,2.2v0c0,1.2,0.9,2.3,2.2,2.3S16.7,45,16.7,43.7z"/>
		<path class="st1" d="M23.3,43.7L23.3,43.7c0-1.8,1.3-3.3,3.3-3.3c1.2,0,1.9,0.4,2.5,1l-0.7,0.8c-0.5-0.5-1-0.8-1.8-0.8
			c-1.2,0-2.1,1-2.1,2.2v0c0,1.2,0.9,2.3,2.1,2.3c0.8,0,1.3-0.3,1.8-0.8l0.7,0.7c-0.7,0.7-1.4,1.1-2.6,1.1
			C24.7,47,23.3,45.6,23.3,43.7z"/>
		<path class="st1" d="M34.6,40.6h1.1v6.3h-1.1V40.6z"/>
		<path class="st1" d="M41.8,40.6h4.7v1h-3.6v1.6h3.2v1h-3.2v1.7h3.6v1h-4.7V40.6z"/>
		<path class="st1" d="M52.2,40.6h2.4c2,0,3.4,1.4,3.4,3.1v0c0,1.8-1.4,3.2-3.4,3.2h-2.4V40.6z M54.5,45.9c1.3,0,2.2-0.9,2.2-2.1v0
			c0-1.2-0.9-2.2-2.2-2.2h-1.2v4.3H54.5z"/>
		<path class="st1" d="M65.4,40.5h1l2.8,6.4H68l-0.6-1.5h-3l-0.7,1.5h-1.1L65.4,40.5z M67,44.4l-1.1-2.5l-1.1,2.5H67z"/>
		<path class="st1" d="M74.6,40.6H77c2,0,3.4,1.4,3.4,3.1v0c0,1.8-1.4,3.2-3.4,3.2h-2.4V40.6z M77,45.9c1.3,0,2.2-0.9,2.2-2.1v0
			c0-1.2-0.9-2.2-2.2-2.2h-1.2v4.3H77z"/>
		<path class="st1" d="M93.1,40.6h2.4c2,0,3.4,1.4,3.4,3.1v0c0,1.8-1.4,3.2-3.4,3.2h-2.4V40.6z M95.4,45.9c1.3,0,2.2-0.9,2.2-2.1v0
			c0-1.2-0.9-2.2-2.2-2.2h-1.2v4.3H95.4z"/>
		<path class="st1" d="M104.5,40.6h4.7v1h-3.6v1.6h3.2v1h-3.2v1.7h3.6v1h-4.7V40.6z"/>
		<path class="st1" d="M121.4,40.6h1.2l1.9,4.9l1.9-4.9h1.2l-2.6,6.4h-1L121.4,40.6z"/>
		<path class="st1" d="M134.4,40.5h1l2.8,6.4H137l-0.6-1.5h-3l-0.7,1.5h-1.1L134.4,40.5z M136,44.4l-1.1-2.5l-1.1,2.5H136z"/>
		<path class="st1" d="M143.6,40.6h1.1v5.3h3.3v1h-4.4V40.6z"/>
		<path class="st1" d="M152.9,43.7L152.9,43.7c0-1.8,1.4-3.3,3.3-3.3s3.3,1.5,3.3,3.3v0c0,1.8-1.4,3.3-3.3,3.3
			S152.9,45.5,152.9,43.7z M158.4,43.7L158.4,43.7c0-1.2-0.9-2.3-2.2-2.3c-1.3,0-2.1,1-2.1,2.2v0c0,1.2,0.9,2.3,2.2,2.3
			S158.4,45,158.4,43.7z"/>
		<path class="st1" d="M165.2,40.6h2.8c0.8,0,1.4,0.2,1.8,0.6c0.3,0.3,0.5,0.8,0.5,1.4v0c0,1-0.6,1.7-1.5,1.9l1.7,2.4h-1.3l-1.6-2.2
			h0h-1.4v2.2h-1.1V40.6z M168,43.7c0.8,0,1.3-0.4,1.3-1.1v0c0-0.7-0.5-1-1.3-1h-1.6v2.1H168z"/>
		<path class="st1" d="M176.1,40.6h4.7v1h-3.6v1.6h3.2v1h-3.2v1.7h3.6v1h-4.7V40.6z"/>
		<path class="st1" d="M186.1,46l0.7-0.8c0.6,0.5,1.2,0.8,2,0.8c0.7,0,1.1-0.3,1.1-0.8v0c0-0.5-0.3-0.7-1.4-1
			c-1.3-0.3-2.1-0.7-2.1-1.9v0c0-1.1,0.9-1.8,2.2-1.8c0.9,0,1.7,0.3,2.3,0.8l-0.6,0.8c-0.6-0.4-1.1-0.7-1.7-0.7c-0.7,0-1,0.3-1,0.8
			v0c0,0.5,0.3,0.7,1.5,1c1.3,0.3,2,0.8,2,1.9v0c0,1.2-0.9,1.9-2.3,1.9C187.7,47,186.8,46.6,186.1,46z"/>
	</g>
</g>
<g>
	<line class="st2" x1="96" y1="23.9" x2="96" y2="23.9"/>
	<g>
		<path class="st1" d="M1.1,1h5.6v4.9H1.1V1z M1.3,9.4h5.2V32H1.3V9.4z"/>
		<path class="st1" d="M12.8,2h13.5c3.4,0,6.1,0.9,7.8,2.7c1.3,1.3,2,3,2,5v0.1c0,3.6-2.1,5.5-4.3,6.7c3.5,1.2,6,3.2,6,7.3v0.1
			c0,5.4-4.4,8.2-11.1,8.2H12.8V2z M25.1,14.7c3.4,0,5.7-1.3,5.7-4.1v-0.1c0-2.4-1.9-3.8-5.3-3.8h-7.6v8H25.1z M26.7,27.4
			c3.6,0,5.8-1.4,5.8-4.1v-0.1c0-2.5-2-4-6.2-4h-8.4v8.2H26.7z"/>
		<path class="st1" d="M42.6,2H56c3.8,0,6.7,1.1,8.7,3c1.6,1.6,2.5,3.9,2.5,6.5v0.1c0,4.9-3,7.9-7.2,9.1L68.1,32h-6.2l-7.4-10.5
			h-0.1h-6.5V32h-5.3V2z M55.6,16.9c3.8,0,6.2-2,6.2-5v-0.1c0-3.2-2.3-5-6.2-5h-7.7v10.1H55.6z"/>
		<path class="st3" d="M71.2,17.1L71.2,17.1c0-8.5,6.5-15.6,15.7-15.6c9.2,0,15.6,7,15.6,15.4V17c0,8.4-6.5,15.5-15.7,15.5
			C77.6,32.5,71.2,25.6,71.2,17.1z M97.1,17.1L97.1,17.1c0-5.9-4.2-10.8-10.2-10.8c-6,0-10.1,4.8-10.1,10.6V17
			c0,5.8,4.2,10.7,10.2,10.7C92.9,27.7,97.1,22.9,97.1,17.1z"/>
		<path class="st1" d="M107.9,2h5.3v15.1L127.4,2h6.5l-12.5,12.9l13,17.1h-6.4l-10.2-13.5l-4.7,4.8V32h-5.3V2z"/>
		<path class="st1" d="M137.9,2h22.2v4.7h-17v7.8h15v4.7h-15v8.1h17.2V32h-22.5V2z"/>
		<path class="st1" d="M165.5,2h13.4c3.8,0,6.7,1.1,8.7,3c1.6,1.6,2.5,3.9,2.5,6.5v0.1c0,4.9-3,7.9-7.2,9.1L191,32h-6.2l-7.4-10.5
			h-0.1h-6.5V32h-5.3V2z M178.5,16.9c3.8,0,6.2-2,6.2-5v-0.1c0-3.2-2.3-5-6.2-5h-7.7v10.1H178.5z"/>
		<line class="st2" x1="96" y1="7.9" x2="96" y2="7.9"/>
	</g>
</g>
</svg>
