<?xml version="1.0" encoding="utf-8"?>
<!-- Generator: Adobe Illustrator 26.0.1, SVG Export Plug-In . SVG Version: 6.00 Build 0)  -->
<svg version="1.1" id="Capa_1" xmlns="http://www.w3.org/2000/svg" xmlns:xlink="http://www.w3.org/1999/xlink" x="0px" y="0px"
	 viewBox="0 0 300 45.4" style="enable-background:new 0 0 300 45.4;" xml:space="preserve">
<style type="text/css">
	.st0{fill:#30B767;}
</style>
<g>
	<g>
		<path class="st0" d="M24.34,32.47V13.85h7.82v18.22c0,3.97,2.59,6.61,6.67,6.61c3.97,0,6.61-2.64,6.61-6.61V13.85h7.82v18.62
			c0,7.82-5.75,12.93-14.42,12.93C30.09,45.4,24.34,40.28,24.34,32.47z"/>
		<path class="st0" d="M66.95,17.99c2.47-3.05,6.32-4.71,11.38-4.71l-0.52,7.18c-6.44,0-10.69,3.1-10.69,7.76v16.61H59.3V13.85h7.53
			L66.95,17.99z"/>
		<path class="st0" d="M115.62,29.48c0,9.48-6.49,15.92-14.83,15.92c-4.83,0-8.16-1.95-10.4-5.23l-0.17,4.65h-7.53V0h7.82v18.33
			c2.24-3.22,5.52-5.06,10.29-5.06C109.13,13.27,115.62,19.83,115.62,29.48z M107.52,29.36c0-5.63-3.39-9.42-8.5-9.42
			s-8.5,3.79-8.5,9.37c0,5.69,3.39,9.37,8.5,9.37S107.52,34.94,107.52,29.36z"/>
		<path class="st0" d="M152.43,13.85v30.97h-7.53l-0.17-4.71c-2.13,3.28-5.57,5.29-10.4,5.29c-8.39,0-14.83-6.44-14.83-15.92
			c0-9.65,6.44-16.21,14.83-16.21c4.83,0,8.28,2.01,10.4,5.29l0.17-4.71H152.43z M144.62,29.31c0-5.57-3.45-9.37-8.56-9.37
			c-5,0-8.5,3.79-8.5,9.42c0,5.57,3.51,9.31,8.5,9.31C141.17,38.67,144.62,35,144.62,29.31z"/>
		<path class="st0" d="M189.49,25.34v19.48h-7.82V26.61c0-4.08-2.87-6.67-7.24-6.67s-7.24,2.59-7.24,6.67v18.22h-7.82V13.85h7.53
			l0.11,3.91c2.36-2.93,5.98-4.48,10.11-4.48C184.55,13.27,189.49,18.1,189.49,25.34z"/>
		<path class="st0" d="M196.54,13.85h7.82v30.97h-7.82V13.85z"/>
		<path class="st0" d="M228.87,37.64v6.32c-2.36,0.98-5.17,1.44-7.93,1.44c-5.63,0-9.48-3.91-9.48-9.77V4.77h7.82v9.08h9.14v6.38
			h-9.14v13.79c0,2.82,1.72,4.65,4.19,4.65C225.31,38.67,227.09,38.39,228.87,37.64z"/>
		<path class="st0" d="M264.54,13.85v30.97h-7.53l-0.17-4.71c-2.13,3.28-5.57,5.29-10.4,5.29c-8.39,0-14.83-6.44-14.83-15.92
			c0-9.65,6.44-16.21,14.83-16.21c4.83,0,8.28,2.01,10.4,5.29l0.17-4.71H264.54z M256.72,29.31c0-5.57-3.45-9.37-8.56-9.37
			c-5,0-8.5,3.79-8.5,9.42c0,5.57,3.51,9.31,8.5,9.31C253.27,38.67,256.72,35,256.72,29.31z"/>
		<path class="st0" d="M299.83,32.12h-22.47c0.63,4.37,2.87,7.13,7.47,7.13c3.22,0,5.75-1.44,7.59-3.68l6.03,3.05
			c-2.82,4.14-7.59,6.78-13.5,6.78c-9.48,0-15.86-6.38-15.86-15.86c0-9.77,6.21-16.26,15.46-16.26c9.37,0,15.46,6.21,15.46,15.57
			C300,29.94,300,31.2,299.83,32.12z M277.36,26.84h14.48c-0.63-4.77-2.99-7.41-7.3-7.41C280.4,19.42,277.99,22.07,277.36,26.84z"/>
		<path class="st0" d="M0,26.91c0-4.04,2.92-6.97,6.97-6.97s6.88,2.92,6.88,6.97s-2.84,6.88-6.88,6.88S0,30.95,0,26.91z"/>
	</g>
</g>
</svg>
