<svg height="auto" viewBox="0 0 2000 1400" xmlns="http://www.w3.org/2000/svg"><path d="m0 1395.602 91-51.905 91-11.384 91-48.89 91-120.772 91 27.196 91-149.25 91-59.942 91 84.235 91 41.804 91-310.986 91-19.15 91 96.37 91-19.476 91-128.796 91 126.401 91 5.44 91-142.248 91-439.764 91 37.072 91-184.78 91 271.594 91-340.37L2000 1400H0Z" fill="#49b87b1a"/><path d="m0 1395.602 91-51.905 91-11.384 91-48.89 91-120.772 91 27.196 91-149.25 91-59.942 91 84.235 91 41.804 91-310.986 91-19.15 91 96.37 91-19.476 91-128.796 91 126.401 91 5.44 91-142.248 91-439.764 91 37.072 91-184.78 91 271.594 91-340.37" fill="none" stroke="rgba(73,184,123,1)" stroke-width="2"/><g fill="rgba(73,184,123,1)"><circle cy="1395.602" r="6"/><circle cx="91" cy="1343.697" r="6"/><circle cx="182" cy="1332.313" r="6"/><circle cx="273" cy="1283.422" r="6"/><circle cx="364" cy="1162.651" r="6"/><circle cx="455" cy="1189.847" r="6"/><circle cx="546" cy="1040.597" r="6"/><circle cx="637" cy="980.655" r="6"/><circle cx="728" cy="1064.89" r="6"/><circle cx="819" cy="1106.694" r="6"/><circle cx="910" cy="795.708" r="6"/><circle cx="1001" cy="776.557" r="6"/><circle cx="1092" cy="872.929" r="6"/><circle cx="1183" cy="853.452" r="6"/><circle cx="1274" cy="724.656" r="6"/><circle cx="1365" cy="851.057" r="6"/><circle cx="1456" cy="856.497" r="6"/><circle cx="1547" cy="714.249" r="6"/><circle cx="1638" cy="274.485" r="6"/><circle cx="1729" cy="311.557" r="6"/><circle cx="1820" cy="126.778" r="6"/><circle cx="1911" cy="398.371" r="6"/><circle cx="2002" cy="58" r="6"/></g></svg>