<svg height="auto" viewBox="0 0 2000 1400" xmlns="http://www.w3.org/2000/svg"><path d="m0 1396.214 50-26.632 50-19.65 50-12.418 50-42.561 50-56.021 50 40.113 50-86.917 50 50.833 50-60.273 50-56.735 50-39.622 50 76.206 50-192.158 50-25.812 50 109.57 50-108.126 50-1.95 50-108.324 50 178.485 50 35.085 50-38.855 50-250.57 50 111.94 50-40.076 50-169.95 50-15.297 50 26.776 50 191.956 50-329.418 50 5.05 50 111.96 50 35.176 50-102.89 50-283.048 50 451.848 50-335.166 50-297.999 50 259.244 50-339.767 50 46.53V1400H0Z" fill="#d0e4e91a"/><path d="m0 1396.214 50-26.632 50-19.65 50-12.418 50-42.561 50-56.021 50 40.113 50-86.917 50 50.833 50-60.273 50-56.735 50-39.622 50 76.206 50-192.158 50-25.812 50 109.57 50-108.126 50-1.95 50-108.324 50 178.485 50 35.085 50-38.855 50-250.57 50 111.94 50-40.076 50-169.95 50-15.297 50 26.776 50 191.956 50-329.418 50 5.05 50 111.96 50 35.176 50-102.89 50-283.048 50 451.848 50-335.166 50-297.999 50 259.244 50-339.767 50 46.53" fill="none" stroke="rgba(208,228,233,1)"/><g fill="rgba(208,228,233,1)"><circle cy="1396.214" r="6"/><circle cx="50" cy="1369.582" r="6"/><circle cx="100" cy="1349.931" r="6"/><circle cx="150" cy="1337.514" r="6"/><circle cx="200" cy="1294.953" r="6"/><circle cx="250" cy="1238.932" r="6"/><circle cx="300" cy="1279.045" r="6"/><circle cx="350" cy="1192.128" r="6"/><circle cx="400" cy="1242.961" r="6"/><circle cx="450" cy="1182.688" r="6"/><circle cx="500" cy="1125.953" r="6"/><circle cx="550" cy="1086.331" r="6"/><circle cx="600" cy="1162.537" r="6"/><circle cx="650" cy="970.379" r="6"/><circle cx="700" cy="944.567" r="6"/><circle cx="750" cy="1054.138" r="6"/><circle cx="800" cy="946.011" r="6"/><circle cx="850" cy="944.061" r="6"/><circle cx="900" cy="835.737" r="6"/><circle cx="950" cy="1014.222" r="6"/><circle cx="1000" cy="1049.307" r="6"/><circle cx="1050" cy="1010.452" r="6"/><circle cx="1100" cy="759.881" r="6"/><circle cx="1150" cy="871.822" r="6"/><circle cx="1200" cy="831.746" r="6"/><circle cx="1250" cy="661.797" r="6"/><circle cx="1300" cy="646.499" r="6"/><circle cx="1350" cy="673.275" r="6"/><circle cx="1400" cy="865.231" r="6"/><circle cx="1450" cy="535.813" r="6"/><circle cx="1500" cy="540.863" r="6"/><circle cx="1550" cy="652.823" r="6"/><circle cx="1600" cy="687.999" r="6"/><circle cx="1650" cy="585.109" r="6"/><circle cx="1700" cy="302.061" r="6"/><circle cx="1750" cy="753.909" r="6"/><circle cx="1800" cy="418.743" r="6"/><circle cx="1850" cy="120.744" r="6"/><circle cx="1900" cy="379.988" r="6"/><circle cx="1950" cy="40.221" r="6"/><circle cx="2000" cy="86.751" r="6"/></g></svg>