<svg height="auto" viewBox="0 0 2000 1400" xmlns="http://www.w3.org/2000/svg"><path d="m0 1387.225 91-28.431 91-69.772 91 7.836 91-68.182 91-92.573 91-53.779 91-114.714 91 166.509 91-117.204 91-185.52 91 200.302 91-60.775 91-217.732 91 3.217 91-96.701 91-129.337 91-10.443 91-253.308 91 339.2 91-240.977 91 11.877 91-319.79L2000 1400H0Z" fill="#ff63841a"/><path d="m0 1387.225 91-28.431 91-69.772 91 7.836 91-68.182 91-92.573 91-53.779 91-114.714 91 166.509 91-117.204 91-185.52 91 200.302 91-60.775 91-217.732 91 3.217 91-96.701 91-129.337 91-10.443 91-253.308 91 339.2 91-240.977 91 11.877 91-319.79" fill="none" stroke="#ff638499" stroke-width="2"/><g fill="#ff638499"><circle cy="1387.225" r="6"/><circle cx="91" cy="1358.794" r="6"/><circle cx="182" cy="1289.022" r="6"/><circle cx="273" cy="1296.858" r="6"/><circle cx="364" cy="1228.676" r="6"/><circle cx="455" cy="1136.103" r="6"/><circle cx="546" cy="1082.324" r="6"/><circle cx="637" cy="967.61" r="6"/><circle cx="728" cy="1134.119" r="6"/><circle cx="819" cy="1016.915" r="6"/><circle cx="910" cy="831.395" r="6"/><circle cx="1001" cy="1031.697" r="6"/><circle cx="1092" cy="970.922" r="6"/><circle cx="1183" cy="753.19" r="6"/><circle cx="1274" cy="756.407" r="6"/><circle cx="1365" cy="659.706" r="6"/><circle cx="1456" cy="530.369" r="6"/><circle cx="1547" cy="519.926" r="6"/><circle cx="1638" cy="266.618" r="6"/><circle cx="1729" cy="605.819" r="6"/><circle cx="1820" cy="364.841" r="6"/><circle cx="1911" cy="376.718" r="6"/><circle cx="2002" cy="56.928" r="6"/></g></svg>