<svg height="auto" viewBox="0 0 2000 1400" xmlns="http://www.w3.org/2000/svg"><path d="M0 1400h100v-22.575H0ZM125 1400h100v-88.864H125ZM250 1400h100v-169.235H250ZM375 1400h100v-151.131H375ZM500 1400h100v-357.23H500ZM625 1400h100v-274.443H625ZM750 1400h100v-358.272H750ZM875 1400h100V755.482H875ZM1000 1400h100V795.162h-100ZM1125 1400h100V871.754h-100ZM1250 1400h100V575.702h-100ZM1375 1400h100V442.554h-100ZM1500 1400h100V379.993h-100ZM1625 1400h100V484.118h-100ZM1750 1400h100V671.387h-100ZM1875 1400h100V136.924h-100Z" fill="rgba(208,228,233,1)"/></svg>