<svg xmlns="http://www.w3.org/2000/svg" version="1.1" xmlns:xlink="http://www.w3.org/1999/xlink" xmlns:svgjs="http://svgjs.dev/svgjs" viewBox="0 0 1422 800" opacity="0.18"><defs><linearGradient x1="50%" y1="0%" x2="50%" y2="100%" id="oooscillate-grad"><stop stop-color="#d0e4e9" stop-opacity="1" offset="0%"></stop><stop stop-color="#367588" stop-opacity="1" offset="100%"></stop></linearGradient></defs><g stroke-width="1" stroke="url(#oooscillate-grad)" fill="none" stroke-linecap="round"><path d="M 0 848 Q 355.5 215 711 400 Q 1066.5 585 1422 848" opacity="0.68"></path><path d="M 0 795 Q 355.5 215 711 400 Q 1066.5 585 1422 795" opacity="0.38"></path><path d="M 0 742 Q 355.5 215 711 400 Q 1066.5 585 1422 742" opacity="0.15"></path><path d="M 0 689 Q 355.5 215 711 400 Q 1066.5 585 1422 689" opacity="0.52"></path><path d="M 0 636 Q 355.5 215 711 400 Q 1066.5 585 1422 636" opacity="0.92"></path><path d="M 0 583 Q 355.5 215 711 400 Q 1066.5 585 1422 583" opacity="0.16"></path><path d="M 0 530 Q 355.5 215 711 400 Q 1066.5 585 1422 530" opacity="0.77"></path><path d="M 0 477 Q 355.5 215 711 400 Q 1066.5 585 1422 477" opacity="0.85"></path><path d="M 0 424 Q 355.5 215 711 400 Q 1066.5 585 1422 424" opacity="0.07"></path><path d="M 0 371 Q 355.5 215 711 400 Q 1066.5 585 1422 371" opacity="0.84"></path><path d="M 0 318 Q 355.5 215 711 400 Q 1066.5 585 1422 318" opacity="0.16"></path><path d="M 0 265 Q 355.5 215 711 400 Q 1066.5 585 1422 265" opacity="0.29"></path><path d="M 0 212 Q 355.5 215 711 400 Q 1066.5 585 1422 212" opacity="0.66"></path><path d="M 0 159 Q 355.5 215 711 400 Q 1066.5 585 1422 159" opacity="0.97"></path><path d="M 0 106 Q 355.5 215 711 400 Q 1066.5 585 1422 106" opacity="0.85"></path></g></svg>