<svg xmlns="http://www.w3.org/2000/svg" version="1.1" xmlns:xlink="http://www.w3.org/1999/xlink" xmlns:svgjs="http://svgjs.dev/svgjs" viewBox="0 0 2400 800"><defs><linearGradient x1="50%" y1="0%" x2="50%" y2="100%" id="oooscillate-grad"><stop stop-color="#367588" stop-opacity="1" offset="0%"></stop><stop stop-color="#162938" stop-opacity="1" offset="100%"></stop></linearGradient></defs><g stroke-width="1.5" stroke="url(#oooscillate-grad)" fill="none" stroke-linecap="round"><path d="M 0 1056 Q 600 -100 1200 400 Q 1800 900 2400 1056" opacity="1.00"></path><path d="M 0 1032 Q 600 -100 1200 400 Q 1800 900 2400 1032" opacity="0.98"></path><path d="M 0 1008 Q 600 -100 1200 400 Q 1800 900 2400 1008" opacity="0.96"></path><path d="M 0 984 Q 600 -100 1200 400 Q 1800 900 2400 984" opacity="0.93"></path><path d="M 0 960 Q 600 -100 1200 400 Q 1800 900 2400 960" opacity="0.91"></path><path d="M 0 936 Q 600 -100 1200 400 Q 1800 900 2400 936" opacity="0.89"></path><path d="M 0 912 Q 600 -100 1200 400 Q 1800 900 2400 912" opacity="0.87"></path><path d="M 0 888 Q 600 -100 1200 400 Q 1800 900 2400 888" opacity="0.85"></path><path d="M 0 864 Q 600 -100 1200 400 Q 1800 900 2400 864" opacity="0.82"></path><path d="M 0 840 Q 600 -100 1200 400 Q 1800 900 2400 840" opacity="0.80"></path><path d="M 0 816 Q 600 -100 1200 400 Q 1800 900 2400 816" opacity="0.78"></path><path d="M 0 792 Q 600 -100 1200 400 Q 1800 900 2400 792" opacity="0.76"></path><path d="M 0 768 Q 600 -100 1200 400 Q 1800 900 2400 768" opacity="0.73"></path><path d="M 0 744 Q 600 -100 1200 400 Q 1800 900 2400 744" opacity="0.71"></path><path d="M 0 720 Q 600 -100 1200 400 Q 1800 900 2400 720" opacity="0.69"></path><path d="M 0 696 Q 600 -100 1200 400 Q 1800 900 2400 696" opacity="0.67"></path><path d="M 0 672 Q 600 -100 1200 400 Q 1800 900 2400 672" opacity="0.65"></path><path d="M 0 648 Q 600 -100 1200 400 Q 1800 900 2400 648" opacity="0.62"></path><path d="M 0 624 Q 600 -100 1200 400 Q 1800 900 2400 624" opacity="0.60"></path><path d="M 0 600 Q 600 -100 1200 400 Q 1800 900 2400 600" opacity="0.58"></path><path d="M 0 576 Q 600 -100 1200 400 Q 1800 900 2400 576" opacity="0.56"></path><path d="M 0 552 Q 600 -100 1200 400 Q 1800 900 2400 552" opacity="0.54"></path><path d="M 0 528 Q 600 -100 1200 400 Q 1800 900 2400 528" opacity="0.51"></path><path d="M 0 504 Q 600 -100 1200 400 Q 1800 900 2400 504" opacity="0.49"></path><path d="M 0 480 Q 600 -100 1200 400 Q 1800 900 2400 480" opacity="0.47"></path><path d="M 0 456 Q 600 -100 1200 400 Q 1800 900 2400 456" opacity="0.45"></path><path d="M 0 432 Q 600 -100 1200 400 Q 1800 900 2400 432" opacity="0.43"></path><path d="M 0 408 Q 600 -100 1200 400 Q 1800 900 2400 408" opacity="0.40"></path><path d="M 0 384 Q 600 -100 1200 400 Q 1800 900 2400 384" opacity="0.38"></path><path d="M 0 360 Q 600 -100 1200 400 Q 1800 900 2400 360" opacity="0.36"></path><path d="M 0 336 Q 600 -100 1200 400 Q 1800 900 2400 336" opacity="0.34"></path><path d="M 0 312 Q 600 -100 1200 400 Q 1800 900 2400 312" opacity="0.32"></path><path d="M 0 288 Q 600 -100 1200 400 Q 1800 900 2400 288" opacity="0.29"></path><path d="M 0 264 Q 600 -100 1200 400 Q 1800 900 2400 264" opacity="0.27"></path><path d="M 0 240 Q 600 -100 1200 400 Q 1800 900 2400 240" opacity="0.25"></path><path d="M 0 216 Q 600 -100 1200 400 Q 1800 900 2400 216" opacity="0.23"></path><path d="M 0 192 Q 600 -100 1200 400 Q 1800 900 2400 192" opacity="0.20"></path><path d="M 0 168 Q 600 -100 1200 400 Q 1800 900 2400 168" opacity="0.18"></path><path d="M 0 144 Q 600 -100 1200 400 Q 1800 900 2400 144" opacity="0.16"></path><path d="M 0 120 Q 600 -100 1200 400 Q 1800 900 2400 120" opacity="0.14"></path><path d="M 0 96 Q 600 -100 1200 400 Q 1800 900 2400 96" opacity="0.12"></path><path d="M 0 72 Q 600 -100 1200 400 Q 1800 900 2400 72" opacity="0.09"></path><path d="M 0 48 Q 600 -100 1200 400 Q 1800 900 2400 48" opacity="0.07"></path></g></svg>